<svg
  width="28"
  height="20"
  viewBox="0 0 28 20"
  fill="none"
  xmlns="http://www.w3.org/2000/svg"
>
  <path
    d="M15.2795 19.9432V0H7.42925C5.15094 0 3.45874 0.478896 2.35259 1.43669C1.24646 2.37825 0.693396 3.68507 0.693396 5.35714C0.693396 6.25 0.908019 7.04545 1.33726 7.74351C1.75 8.42532 2.29481 8.96104 2.9717 9.35065C2.21226 9.65909 1.52712 10.2192 0.916274 11.0309C0.305425 11.8263 0 12.8166 0 14.0016C0 15.7386 0.569575 17.1672 1.70873 18.2873C2.84786 19.3912 4.42453 19.9432 6.43868 19.9432H15.2795ZM11.1686 16.4854H7.03302C6.3066 16.4854 5.671 16.2743 5.12617 15.8523C4.56485 15.4302 4.28421 14.8133 4.28421 14.0016C4.28421 13.2549 4.53183 12.638 5.02711 12.151C5.50591 11.6477 6.20755 11.3961 7.13208 11.3961H11.1686V16.4854ZM11.1686 7.98701H7.75119C6.90919 7.98701 6.24057 7.79221 5.74528 7.4026C5.23349 7.01299 4.97761 6.43668 4.97761 5.67371C4.97761 4.21268 5.87736 3.48213 7.67689 3.48213H11.1686V7.98701Z"
    fill="#1F2A1F"
  />
  <path
    d="M11.1686 19.9432V0H15.2795V8.08442H15.3538L22.4116 0H27.5626L19.6132 8.76623L27.612 19.9432H22.7087L17.0377 11.6153L15.2795 13.5633V19.9432H11.1686Z"
    fill="#1F2A1F"
  />
</svg>
